# xmcd
#
# Track frame offsets: 
#        182
#        18225
#        36085
#        53822
#        73785
#        90947
#        104800
#        120970
#        137957
#        154167
#
# Disc length: 2208 seconds
#
# Revision: 2
# Processed by: cddbd v1.5.2PL0 Copyright (c) Steve Scherf et al.
# Submitted via: ExactAudioCopyFreeDBPlugin 1.0
#
DISCID=80089e0a
DTITLE=Amy Holland - Amy Holland
DYEAR=1980
DGENRE=Melodic Rock
TTITLE0=How Do I Survive
TTITLE1=Strengthen My Love
TTITLE2=Here In The Light
TTITLE3=Stars
TTITLE4=Don't Kid Yourself
TTITLE5=I'm Wondering
TTITLE6=Looking For Love
TTITLE7=Holding On To You
TTITLE8=Show Me The Way Home
TTITLE9=Forgetting You
EXTD=YEAR: 1980
EXTT0=
EXTT1=
EXTT2=
EXTT3=
EXTT4=
EXTT5=
EXTT6=
EXTT7=
EXTT8=
EXTT9=
PLAYORDER=
